HIERARCHY
ROOT Hips
{
	OFFSET -14.64140 90.27770 -84.91600
	CHANNELS 6 Xposition Yposition Zposition Zrotation Xrotation Yrotation
	JOINT Spine
	{
		OFFSET 0.00000 13.20850 -1.60436
		CHANNELS 3 Zrotation Xrotation Yrotation
		JOINT Spine1
		{
			OFFSET 0.00000 8.61716 0.00000
			CHANNELS 3 Zrotation Xrotation Yrotation
			JOINT Spine2
			{
				OFFSET 0.00000 8.61717 0.00000
				CHANNELS 3 Zrotation Xrotation Yrotation
				JOINT Spine3
				{
					OFFSET 0.00000 8.61717 0.00000
					CHANNELS 3 Zrotation Xrotation Yrotation
					JOINT Neck
					{
						OFFSET 0.00000 11.07920 1.10792
						CHANNELS 3 Zrotation Xrotation Yrotation
						JOINT Neck1
						{
							OFFSET 0.00000 7.08032 0.00000
							CHANNELS 3 Zrotation Xrotation Yrotation
							JOINT Head
							{
								OFFSET 0.00000 7.08031 0.00000
								CHANNELS 3 Zrotation Xrotation Yrotation
								End site
								{
									OFFSET 0.00000 0.00000 0.00000
								}
							}
						}
					}
					JOINT RightShoulder
					{
						OFFSET -0.01000 7.91373 5.19711
						CHANNELS 3 Zrotation Xrotation Yrotation
						JOINT RightArm
						{
							OFFSET -18.41580 0.00000 0.00000
							CHANNELS 3 Zrotation Xrotation Yrotation
							JOINT RightForeArm
							{
								OFFSET -29.11090 0.00000 0.00000
								CHANNELS 3 Zrotation Xrotation Yrotation
								JOINT RightHand
								{
									OFFSET -24.65040 0.00000 0.00000
									CHANNELS 3 Zrotation Xrotation Yrotation
									JOINT RightHandThumb1
									{
										OFFSET -5.35114 -0.85590 3.97906
										CHANNELS 3 Zrotation Xrotation Yrotation
										JOINT RightHandThumb2
										{
											OFFSET -4.52789 0.00000 0.00000
											CHANNELS 3 Zrotation Xrotation Yrotation
											JOINT RightHandThumb3
											{
												OFFSET -2.46976 0.00000 0.00000
												CHANNELS 3 Zrotation Xrotation Yrotation
												End site
												{
													OFFSET 0.00000 0.00000 0.00000
												}
											}
										}
									}
									JOINT RightHandIndex1
									{
										OFFSET -14.26970 0.00000 2.88139
										CHANNELS 3 Zrotation Xrotation Yrotation
										JOINT RightHandIndex2
										{
											OFFSET -5.48836 0.00000 0.00000
											CHANNELS 3 Zrotation Xrotation Yrotation
											JOINT RightHandIndex3
											{
												OFFSET -3.01859 0.00000 0.00000
												CHANNELS 3 Zrotation Xrotation Yrotation
												End site
												{
													OFFSET 0.00000 0.00000 0.00000
												}
											}
										}
									}
									JOINT RightHandMiddle1
									{
										OFFSET -14.26970 0.00000 -0.09147
										CHANNELS 3 Zrotation Xrotation Yrotation
										JOINT RightHandMiddle2
										{
											OFFSET -6.17441 0.00000 0.00000
											CHANNELS 3 Zrotation Xrotation Yrotation
											JOINT RightHandMiddle3
											{
												OFFSET -3.56743 0.00000 0.00000
												CHANNELS 3 Zrotation Xrotation Yrotation
												End site
												{
													OFFSET 0.00000 0.00000 0.00000
												}
											}
										}
									}
									JOINT RightHandRing1
									{
										OFFSET -12.69180 0.00000 -3.06433
										CHANNELS 3 Zrotation Xrotation Yrotation
										JOINT RightHandRing2
										{
											OFFSET -5.62556 0.00000 0.00000
											CHANNELS 3 Zrotation Xrotation Yrotation
											JOINT RightHandRing3
											{
												OFFSET -3.56744 0.00000 0.00000
												CHANNELS 3 Zrotation Xrotation Yrotation
												End site
												{
													OFFSET 0.00000 0.00000 0.00000
												}
											}
										}
									}
									JOINT RightHandPinky1
									{
										OFFSET -11.11390 0.00000 -6.03719
										CHANNELS 3 Zrotation Xrotation Yrotation
										JOINT RightHandPinky2
										{
											OFFSET -4.52789 0.00000 0.00000
											CHANNELS 3 Zrotation Xrotation Yrotation
											JOINT RightHandPinky3
											{
												OFFSET -2.46976 0.00000 0.00000
												CHANNELS 3 Zrotation Xrotation Yrotation
												End site
												{
													OFFSET 0.00000 0.00000 0.00000
												}
											}
										}
									}
								}
							}
						}
					}
					JOINT LeftShoulder
					{
						OFFSET 0.01000 7.91373 5.19711
						CHANNELS 3 Zrotation Xrotation Yrotation
						JOINT LeftArm
						{
							OFFSET 18.41580 0.00000 0.00000
							CHANNELS 3 Zrotation Xrotation Yrotation
							JOINT LeftForeArm
							{
								OFFSET 29.11090 0.00000 0.00000
								CHANNELS 3 Zrotation Xrotation Yrotation
								JOINT LeftHand
								{
									OFFSET 24.65040 0.00000 0.00000
									CHANNELS 3 Zrotation Xrotation Yrotation
									JOINT LeftHandThumb1
									{
										OFFSET 5.35114 -0.85590 3.97906
										CHANNELS 3 Zrotation Xrotation Yrotation
										JOINT LeftHandThumb2
										{
											OFFSET 4.52789 0.00000 0.00000
											CHANNELS 3 Zrotation Xrotation Yrotation
											JOINT LeftHandThumb3
											{
												OFFSET 2.46977 0.00000 0.00000
												CHANNELS 3 Zrotation Xrotation Yrotation
												End site
												{
													OFFSET 0.00000 0.00000 0.00000
												}
											}
										}
									}
									JOINT LeftHandIndex1
									{
										OFFSET 14.26970 0.00000 2.88139
										CHANNELS 3 Zrotation Xrotation Yrotation
										JOINT LeftHandIndex2
										{
											OFFSET 5.48836 0.00000 0.00000
											CHANNELS 3 Zrotation Xrotation Yrotation
											JOINT LeftHandIndex3
											{
												OFFSET 3.01859 0.00000 0.00000
												CHANNELS 3 Zrotation Xrotation Yrotation
												End site
												{
													OFFSET 0.00000 0.00000 0.00000
												}
											}
										}
									}
									JOINT LeftHandMiddle1
									{
										OFFSET 14.26970 0.00000 -0.09147
										CHANNELS 3 Zrotation Xrotation Yrotation
										JOINT LeftHandMiddle2
										{
											OFFSET 6.17440 0.00000 0.00000
											CHANNELS 3 Zrotation Xrotation Yrotation
											JOINT LeftHandMiddle3
											{
												OFFSET 3.56744 0.00000 0.00000
												CHANNELS 3 Zrotation Xrotation Yrotation
												End site
												{
													OFFSET 0.00000 0.00000 0.00000
												}
											}
										}
									}
									JOINT LeftHandRing1
									{
										OFFSET 12.69180 0.00000 -3.06433
										CHANNELS 3 Zrotation Xrotation Yrotation
										JOINT LeftHandRing2
										{
											OFFSET 5.62556 0.00000 0.00000
											CHANNELS 3 Zrotation Xrotation Yrotation
											JOINT LeftHandRing3
											{
												OFFSET 3.56744 0.00000 0.00000
												CHANNELS 3 Zrotation Xrotation Yrotation
												End site
												{
													OFFSET 0.00000 0.00000 0.00000
												}
											}
										}
									}
									JOINT LeftHandPinky1
									{
										OFFSET 11.11390 0.00000 -6.03719
										CHANNELS 3 Zrotation Xrotation Yrotation
										JOINT LeftHandPinky2
										{
											OFFSET 4.52789 0.00000 0.00000
											CHANNELS 3 Zrotation Xrotation Yrotation
											JOINT LeftHandPinky3
											{
												OFFSET 2.46976 0.00000 0.00000
												CHANNELS 3 Zrotation Xrotation Yrotation
												End site
												{
													OFFSET 0.00000 0.00000 0.00000
												}
											}
										}
									}
								}
							}
						}
					}
					JOINT pCube4
					{
						OFFSET 0.00000 10.91090 1.10792
						CHANNELS 3 Zrotation Xrotation Yrotation
						End site
						{
							OFFSET 0.00000 0.00000 0.00000
						}
					}
				}
			}
		}
	}
	JOINT RightUpLeg
	{
		OFFSET -9.98441 0.00000 0.00000
		CHANNELS 3 Zrotation Xrotation Yrotation
		JOINT RightLeg
		{
			OFFSET 0.00000 -42.11790 0.00000
			CHANNELS 3 Zrotation Xrotation Yrotation
			JOINT RightFoot
			{
				OFFSET 0.00000 -45.00020 -0.00001
				CHANNELS 3 Zrotation Xrotation Yrotation
				JOINT RightForeFoot
				{
					OFFSET 0.00000 -3.74820 0.00000
					CHANNELS 3 Zrotation Xrotation Yrotation
					JOINT RightToeBase
					{
						OFFSET 0.00000 0.06325 14.43120
						CHANNELS 3 Zrotation Xrotation Yrotation
						End site
						{
							OFFSET 0.00000 0.00000 0.00000
						}
					}
				}
			}
		}
	}
	JOINT LeftUpLeg
	{
		OFFSET 9.98441 0.00000 0.00000
		CHANNELS 3 Zrotation Xrotation Yrotation
		JOINT LeftLeg
		{
			OFFSET 0.00000 -42.11800 0.00000
			CHANNELS 3 Zrotation Xrotation Yrotation
			JOINT LeftFoot
			{
				OFFSET 0.00000 -45.00070 0.00000
				CHANNELS 3 Zrotation Xrotation Yrotation
				JOINT LeftForeFoot
				{
					OFFSET 0.00000 -3.74824 0.00000
					CHANNELS 3 Zrotation Xrotation Yrotation
					JOINT LeftToeBase
					{
						OFFSET 0.00000 0.06325 14.43110
						CHANNELS 3 Zrotation Xrotation Yrotation
						End site
						{
							OFFSET 0.00000 0.00000 0.00000
						}
					}
				}
			}
		}
	}
}
MOTION
Frames: 4
Frame Time: 0.050000
0.039542745995822054 0.00830680836951733 0.01826162430158949 -0.028786402723675858 -0.03909390291570157 -0.034783885187226506 5.168101803198866 3.21684780210348 -2.1825805001833714 -0.8933890441196544 3.382130442761467 0.43252420011015313 -0.7546500314820861 -0.9716695046300744 0.8440177926543942 -0.47047349968335145 -0.3071119768171387 -0.3075605989789385 0.23278865201838367 11.334323813164412 -1.6133669793919392 0.371292409281453 -0.724356276060049 -3.9067051317941233 1.0622581212140485 -17.423339119122506 -0.3667552567861359 -11.784944829407992 4.033991907226765 -16.563138469162258 80.72768913813853 -1.669736587811394 13.907679399978237 23.373991256748095 1.4087888782532054 83.29905446363668 9.716418137620945 -0.49519558187051843 -5.3028681355178335 4.523390800831014 -0.11766127042600105 -1.5728277535138468 0.01852873620191439 0.015740769995206943 -56.27536737142719 -0.03147444029264158 -0.03526336878913746 -56.19809514672819 -38.72801273288916 -0.00800525210369 -0.02294032608974391 -0.02578322845561774 -0.043220925503717346 -0.022512785592183532 -0.004205993832382145 0.007275535896028314 0.029589313821971372 -36.66560462412837 0.0022584945216339203 0.016334345367134257 0.03217735037906639 -0.028792815948629223 0.045024259743832645 -0.004066935555802982 -0.01308638526492494 -0.003990076308817918 -19.760366318948495 -0.013360138066843358 0.022661345239607087 0.043655980919229787 -0.029796216001178565 0.01318626263960263 0.008540712954020261 -0.03372008788819059 0.005322328219428107 24.03679301888334 -0.04357840267590622 0.03441882935083592 28.88311619489642 0.037538267743861355 -0.03216102185908293 28.876828899432574 -0.04248078672097498 -0.003232038156382541 10.780481234555646 2.605705698043304 13.459756225166684 -78.97925507905923 17.669267141530884 -13.310788273920256 -69.44745464951735 11.807915168627469 -95.30765109184722 -8.079335344779421 -9.31079124369871 5.942940120003161 -0.44352684972660394 0.03538393401522817 -8.074042001894775 -0.030756100239414066 -0.012702594297493106 44.61427333219266 -0.02626891410060204 0.017750782830868374 44.60996682654304 12.491468948843876 0.014034616698353635 -0.012865162616361852 -0.03953755839603038 0.0113231625660512 0.019976428244685637 -0.010062241361385478 -0.009610351029261563 -0.0040222896195119375 11.1021876404794 0.011755985974838203 0.0007134202446285666 0.017796927178747243 0.047339168095587816 -0.043291591303666076 0.03136645927463073 0.012280563735200778 0.02275176465303045 4.76278618627363 -0.016169178963900344 -0.03529291471283076 -0.025959173466076443 0.02533255385012507 0.01244447783314223 -0.03441585091762412 -0.01331357653779471 -0.032680286917002845 -5.570324678667104 -0.0412935164892313 -0.012917931282771829 -6.685885514688343 0.014523439517706098 0.043025238429273256 -6.724655575466461 -0.01612820281535747 -0.025880870074189898 -0.011832649662848341 -0.025413681008002405 0.006474247861287409 8.086202220098007 3.500735965635598 -19.225246782023422 0.011009189603368377 10.429533994284881 -0.010804448078967698 -5.662515561339741 -15.621843318749995 3.2056477946535256 -0.015739108417883785 0.015113519824294003 -0.032305354439155505 -0.03244275177232082 4.733234863424519 0.004072867270997646 12.423455312387418 -8.220301435763442 6.907466074214513 0.015808649328170162 46.42286429584804 0.044084954628507055 -4.369475099614387 -14.779312739101721 -3.8747592144843965 0.018710253570021484 -0.010927933353320833 -0.02164942136619541 0.01757310089477763 -10.710044457287738 -0.012860633068118885 
0.013036659680698892 -0.017857924030378683 -0.02273284846906305 0.043833599443422015 -0.04775998219995681 0.013116542053748133 5.109210044044617 3.2625346893151703 -2.1723390615872584 -0.8772049437947358 3.3602491576987474 0.37381926176138686 -0.7680704124611551 -0.8630147127716506 0.7725982084592732 -0.4483678728369046 -0.32864089413507264 -0.2689067495895744 0.3179417422502703 11.159687451716737 -1.7095313900518792 0.39050906703491356 -0.765168321309883 -4.1611028248204525 1.0493202684761216 -17.50224692435984 -0.40690145621335067 -11.715369920094185 4.033936173742848 -16.580890563416126 81.0632371164929 -2.1511193573660603 12.99104767553098 23.56737689724976 1.5323544815868049 82.2964331746937 9.832974636188668 -0.4091547647694147 -5.50404018920045 4.526483834944424 -0.13383912122041575 -1.566804262744659 -0.03587571635291022 0.024000081612687376 -56.21763580579374 0.01732289200731904 0.04972957094532917 -56.20343438615723 -38.7879995829652 -0.00918348227709795 -0.013173456243444044 0.037803082152850206 -0.0030055554615831003 0.006694994634271862 0.0039019314011751044 0.0200516788410836 0.015606432792915865 -36.69852580215067 0.00436955300892731 -0.00612983213497458 -0.03113519130580156 0.04946145435833328 -0.002829473596953458 0.001439297999069561 0.016655191603306595 -0.007523901079274267 -19.762095698480877 0.02199890472988798 -0.03264467292110493 0.0017710494932994692 0.026543179192562667 0.011475944556102414 -0.002714353155258292 -0.0001858075233159734 0.04704590682362699 24.09854484768952 0.04630999985760028 -0.017463692158992968 28.839681882698798 -0.013932518667066027 -0.035164419293734234 28.88611963949075 -0.015120637474279072 0.03133537017822902 10.651993817968435 2.553696924799123 13.402228189887245 -79.14438159815676 17.306487464695756 -12.929268508016188 -71.63902924179837 11.883167867539584 -96.11295933733903 -8.08701948938926 -9.778962527767506 6.245293942650899 -0.443565220514456 0.048727862279472935 -8.141987195776972 0.030127754848040113 -0.026091840908168174 44.5939926953166 -0.03476732711123393 0.037179256820649126 44.58654941910522 12.487147389314806 0.012206681588943894 0.04135466114148785 -0.006195800457192902 -0.041740176515141135 -0.019386671333040815 -0.011057192025716374 0.028025620017014145 0.006173387400861989 11.139997668243902 0.02626314012238169 -0.047653588609955375 -0.027934138792940835 -0.017018376625241326 -0.04643676422327941 0.021364768603056274 -0.04294816398254669 -0.049693077771523424 4.757980781047186 -0.03438844814893669 0.022813256424538162 -0.028084197502077798 0.024936678540658695 0.04713971486302476 0.005990539882975619 -0.037669478816942055 0.037397190115388765 -5.571686794032186 -0.04516319206856991 -0.03033802174118629 -6.725785098385236 0.0011831833352475792 -0.011958261271456683 -6.6838176812109245 0.014128623251342917 -0.02501344300337775 0.007874107914825791 -0.014717665414227563 -0.02026665627466061 8.02447466426241 3.514178767856662 -19.226769191132213 0.03354121895224946 10.437850609238623 0.05534854987739736 -5.593291570914951 -15.701304324005227 3.175074687770362 -5.984581487337002e-06 -0.02048639651207616 -0.005693527358594787 -0.0095271204732338 4.703350338068174 -0.03268076190722304 12.446991722109725 -8.288319257645387 6.84513936695608 -0.048581419656106066 46.39470131993416 -0.005442925572452688 -4.3161916982666035 -14.708376739767228 -3.7857628886521164 -0.018425796184169178 0.0352216292961056 -0.00793919036111833 -0.043067807795897195 -10.742305090144043 -0.01802856563414561 
0.0015505968883337906 -0.0010691143806886402 -0.02708167107250169 0.04476348565532419 0.022524763610761653 -0.005727308044053391 5.163799459506571 3.217168082226393 -2.19108669976867 -0.8564737050055646 3.3958390302088755 0.43467965019081595 -0.691779459124849 -0.8632591880628504 0.6735630110894837 -0.45046036729780714 -0.311029445201538 -0.30777867702296163 0.27220317568744296 11.164310530865063 -1.7816821981024134 0.3351381679534084 -0.7875175810795721 -4.214716928220276 1.0554878186640393 -17.48221117033547 -0.3935568951748651 -11.483757417201073 3.9241339075264094 -16.71110676556068 81.40385478654586 -2.047056443062326 11.653618874378113 23.57277786901908 1.6401541408479268 81.86946884535507 9.979955172270238 -0.4560004170929006 -5.7226111351638425 4.517888553558868 -0.11622953764573564 -1.6162840809543675 -0.027371750778360474 0.0026978407869688655 -56.19518451040522 0.04923333635728244 0.03235231310369398 -56.246629050978726 -38.77638356507713 -0.03252491797350968 0.004090952563664692 0.0011093675324226216 0.04183728751732759 0.016791169600265114 -0.023638298368462398 0.03716819840218621 -0.012086511737159255 -36.6956952806223 0.00923596365641883 -0.008037070278778773 0.03464779339785131 0.02926732496341366 -0.02026371498075085 -0.0351092821277042 -0.028271869712469987 0.046490111863156144 -19.78759764235858 0.01874249453595078 -0.041218376686701884 0.0462204493576925 0.028111875605521065 -0.015601579841085202 0.018952073180090484 -0.012203566840977663 0.030614989465246763 24.08459692407548 -0.018797333131315406 0.009462207590688927 28.899281059355257 -0.04234375025965742 0.022186384853915202 28.868804515086495 -0.02177441907045563 0.03682389611573208 10.583134598973679 2.5386171670568642 13.596655469762386 -79.35816359195455 17.060598732746218 -12.303238981422068 -73.97806542689297 11.722661172935886 -97.37842537027771 -8.562518418940122 -10.479027291719914 6.553823118512926 -0.4383146245104746 0.09005443546549861 -8.073990409581704 0.013458435112241785 0.038876865688223544 44.59372183872908 -0.020954460039678657 0.009896136019754392 44.589975848349006 12.456388362810294 0.036685696013064525 0.01052373812848101 0.041931818875897746 -0.044791761669871595 0.019114836433028626 0.005244875305456889 0.02514899172878996 0.011136843585518787 11.062070305766268 0.04653629523446089 -0.002976576559000153 -0.031067373552974828 -0.046655473191602195 0.008667145285936447 -0.04397151685868231 0.017570611484573107 -0.03579917618116133 4.749548795646836 0.02292374868273824 0.013829696059559016 -0.019496698211211267 0.030989167638715332 -0.04808008757166565 -0.026820801706991217 0.018364775221206886 0.029196229978886882 -5.598199817122126 -0.009064566584247953 -0.000798306161617293 -6.689687143966416 0.039049415653204134 -0.01306017539267545 -6.7691348538782075 0.01809382826381442 -0.026107959714180645 0.014444664278757138 0.0496650798260262 0.02644952923962775 8.090272092554406 3.530118662135527 -19.211362963967314 -0.037602496201218534 10.409667842648926 0.010745483400335563 -5.635296543140839 -15.614478495041482 3.166483382909082 -0.00702952638470955 -0.022709967111244865 0.04466584697744205 -0.014261084809095326 4.657075342245161 0.012671514963403128 12.500800618671034 -8.24636787322246 6.885154962745335 -0.036921848985719645 46.3612324154252 -0.039518954178456474 -4.280294446129686 -14.744876199256742 -3.806656270863903 -0.040206704791099473 0.013014376224531629 -0.024766100906919993 0.027356910529375184 -10.770172448871824 0.014045636803915382 
-0.04713151925211474 -0.017124764755264258 -0.044160406152293406 0.020872990365519987 0.023395621705498762 -0.024042760887744204 5.346314520870139 3.063625191829708 -2.2859999269787505 -0.92421794765733 3.4082115812797404 0.41133192451559025 -0.6959448599198538 -0.9083995201155766 0.6406892906461716 -0.3828860789755775 -0.2748633632458759 -0.3438243715805371 0.25204165028459713 11.130492083038224 -1.6667202701751227 0.334959306745975 -0.7357002758695672 -4.069925004505832 1.078304225801006 -17.410655073307122 -0.4153961667321849 -11.392287610120247 3.9090819009134186 -17.075429298846522 82.00651790653131 -1.9164107585764927 9.613990028061494 23.007054428099675 1.2909434367328474 81.77340251770298 9.673265689345238 -0.5248073679281372 -5.669594816394855 4.530653509766236 -0.11872930474156448 -1.6372331672821898 0.044234726703440606 -0.01598230296997407 -56.231952939817965 -0.015908985421737774 0.017946650775644325 -56.264434763502166 -38.73668503458631 -0.00924369430774323 -0.043530526659893425 0.04468712326533793 -0.008234868835778512 -0.04764683446897521 -0.00683478545278083 -0.024669504610929142 0.0433741521063506 -36.668010823905476 -0.036922650407756295 0.022604621019662065 -0.03336480828621973 0.03365962748813545 0.008056984531524461 -0.033181570779096864 0.0251192756372643 0.03266288146027338 -19.71428999239871 -0.029185314915911628 -0.012094341790883138 -0.02593311059607769 0.0186457708550305 -0.04678927923919997 -0.0003880438712494693 -0.01061376363172767 0.038876096848855804 24.02195911582897 0.005625103036651644 -0.04918654319452032 28.84210782199353 0.01691357108191289 0.04657754904373162 28.839328780522443 -0.029429611736202888 -0.03763207576470834 10.656549765718045 2.4981159401520494 13.857707457669775 -79.79733409911725 16.283353186104605 -11.284373964937586 -76.76008095416233 11.161856467892438 -98.72661030162745 -8.735602850781422 -11.204774494878714 6.730306000100766 -0.4568694575262831 0.0725381247586417 -8.088819924869558 0.04130456512058975 0.03263726776727166 44.55485524606926 -0.04043153314687714 -0.016172930230629653 44.607893924051616 12.415395311902241 -0.042453787634637655 0.04850525371996397 -0.007807521971415037 0.01612131726266369 -0.03327457059515444 0.011696768422448276 0.014727312444090907 -0.017433806710167758 11.084194676210565 0.02948876244208887 -0.020116019784948615 -0.04655946871693763 -0.0021479069607348127 -0.015330691592163402 0.044389754582179614 0.006024704973592803 -0.011022643723745463 4.7897259923322935 0.02037041275898316 0.0471167124731164 -0.03581248501117816 -0.014664526934108496 -0.028735630437782836 -0.024836102376638733 0.004706215989871824 -0.043831206244117724 -5.622268055026309 -0.018816277776515247 -0.002517014186693834 -6.727194151989713 -0.034153597527457835 0.002043886586227639 -6.681964426140907 0.03320947736654482 0.04743018409690748 0.024805331315553427 -0.0005146499487613643 -0.010448649477528089 8.029407220813424 3.530181236382661 -19.24909045874153 0.0044735491780323626 10.36791790985419 -0.002478647492747378 -5.577701887694719 -15.626876642997805 3.2052517406883863 0.02727767691873219 -0.034958279222030944 0.005961597829422394 0.03296457659836707 4.648863268805393 -0.009739763091155136 12.454986535492585 -8.243139224443569 6.859359807158453 -0.011219004916776864 46.37034648296184 0.04320837149188517 -4.3382100448075205 -14.782392746484964 -3.8579272134383866 0.011121361803145408 0.009559782986718455 -0.03002296865826456 -0.04609232966560998 -10.732589376426198 0.03204513910336388 
